<?xml version="1.0" encoding="UTF-8"?>
<svg version="1.1" xmlns="http://www.w3.org/2000/svg" width="1254" height="1254">

<path d="M0 0 C1.18239258 0.00563965 2.36478516 0.0112793 3.58300781 0.01708984 C12.96161705 0.14652952 21.65836978 1.0784788 30.75 3.3125 C31.67361328 3.53244629 32.59722656 3.75239258 33.54882812 3.97900391 C36.62086375 4.7173026 39.68638364 5.4775331 42.75 6.25 C43.70616211 6.49057129 44.66232422 6.73114258 45.64746094 6.97900391 C51.66200986 8.56527013 57.14229224 10.63928508 62.75 13.3125 C64.38637388 14.05544755 66.02310509 14.79760848 67.66015625 15.5390625 C90.65462311 26.16807873 110.1807884 40.3732425 129.75 56.3125 C130.74 57.11816406 131.73 57.92382812 132.75 58.75390625 C136.2876301 61.64330583 139.81569759 64.54423326 143.34375 67.4453125 C146.14083318 69.74056605 148.94459627 72.02742407 151.75 74.3125 C152.3279834 74.78623047 152.9059668 75.25996094 153.50146484 75.74804688 C161.64083224 82.41045242 169.82480777 88.71573195 178.75 94.3125 C179.85214844 95.01761719 180.95429687 95.72273438 182.08984375 96.44921875 C208.22572486 112.87480632 234.6437843 120.31451967 265.04907227 123.55053711 C292.00653106 126.47832411 317.91716988 133.03905324 338.75 151.3125 C339.28189941 151.74820313 339.81379883 152.18390625 340.36181641 152.6328125 C349.03309553 159.75518407 349.03309553 159.75518407 350.53515625 165.11328125 C350.63486459 168.31695365 350.30204842 171.15418219 349.75 174.3125 C349.45029297 176.17068359 349.45029297 176.17068359 349.14453125 178.06640625 C348.55651796 181.49273889 347.86903419 184.89329363 347.16015625 188.29638672 C346.52963059 191.39572061 345.9922166 194.51132289 345.4375 197.625 C343.22908641 209.59258568 340.46336312 221.45161071 337.75 233.3125 C337.57887695 234.06998535 337.40775391 234.8274707 337.23144531 235.60791016 C334.13232704 249.21871769 329.8404875 262.52823043 325.78808594 275.87792969 C324.48071643 280.20344101 323.20337467 284.53720115 321.9375 288.875 C315.4893722 310.84719783 315.4893722 310.84719783 310.83203125 321.390625 C308.30335467 327.42145928 307.84392329 332.96698601 309.5625 339.3125 C310.65130873 341.64309363 310.65130873 341.64309363 313.75 342.3125 C318.73318736 342.68162499 321.85686532 342.57431554 325.75 339.3125 C329.41997862 334.02341316 331.10690324 328.49900826 332.75 322.3125 C336.52168278 323.22684734 338.4036216 324.86288839 340.8125 327.75 C360.02269788 350.76047615 388.43336107 367.32107561 413.015625 383.8671875 C422.03657632 389.945452 430.51237059 396.20983286 438.75 403.3125 C440.4934776 404.71647171 442.24324957 406.11267213 444 407.5 C461.24277974 421.26663534 476.85997277 438.52945202 479.75 461.3125 C480.45795915 471.09329274 480.89890598 481.22592263 476.75 490.3125 C476.35941406 491.199375 475.96882812 492.08625 475.56640625 493 C469.36226022 505.65434885 459.25040209 513.38723296 446.75 519.3125 C446.14349609 519.61736328 445.53699219 519.92222656 444.91210938 520.23632812 C434.21574893 525.42210287 423.3083817 525.89047927 411.625 525.9375 C410.91073853 525.94467041 410.19647705 525.95184082 409.46057129 525.95922852 C398.68536353 526.01734255 389.06645281 524.36954214 378.75 521.3125 C377.8429834 521.0453418 376.9359668 520.77818359 376.00146484 520.50292969 C373.8196183 519.83067766 371.65925697 519.11620648 369.5 518.375 C368.81421875 518.14876953 368.1284375 517.92253906 367.421875 517.68945312 C356.59212251 514.03640242 346.29539341 509.25081243 336.1015625 504.11865234 C334.22692909 503.17589762 332.3480836 502.24193774 330.46875 501.30859375 C329.26015937 500.70363877 328.0518165 500.09818849 326.84375 499.4921875 C325.76802734 498.95319824 324.69230469 498.41420898 323.58398438 497.85888672 C320.75 496.3125 320.75 496.3125 318.53295898 494.64526367 C315.41520611 492.31474019 312.14902289 492.72651473 308.390625 492.83203125 C305.55242613 493.34844909 304.48428846 493.83347297 302.5625 495.9375 C300.58127991 499.62666844 299.9824047 501.21865841 300.75 505.3125 C303.92175029 511.78179238 309.0074287 514.10111485 315.25 517.3125 C316.24233643 517.83650391 317.23467285 518.36050781 318.25708008 518.90039062 C321.080669 520.38583287 323.91405225 521.85083505 326.75 523.3125 C327.9940555 523.96767656 329.23765157 524.62372748 330.48046875 525.28125 C335.94815991 528.11260394 341.43203948 530.37853067 347.25 532.38671875 C349.46029993 533.20522044 351.43169875 534.13115601 353.5 535.25 C379.63720525 548.94091703 414.46726867 551.81892995 442.6640625 544.015625 C450.44393561 541.57335091 457.69797976 538.00392747 464.91064453 534.24072266 C467.13769992 533.11684894 469.41140773 532.17847377 471.75 531.3125 C472.27787109 532.1478125 472.27787109 532.1478125 472.81640625 533 C480.57909261 544.99872148 489.0641424 553.24236181 501.75 559.8125 C510.0675133 564.12022704 517.62996782 568.14714177 522.0625 576.75 C522.53300781 577.63558594 523.00351563 578.52117188 523.48828125 579.43359375 C528.60374478 591.10571952 528.01461728 603.8684853 524.1328125 615.8125 C512.43363274 645.42398323 490.24788432 662.87520094 461.75 675.3125 C459.21506465 676.3713382 456.66994349 677.40274276 454.125 678.4375 C432.97854644 687.35709415 421.15184141 705.88887487 412.75 726.3125 C412.12209858 728.22152286 411.51643927 730.13806299 410.9375 732.0625 C401.62919314 761.62536299 378.73219394 788.72293241 351.65673828 803.45117188 C318.67576578 820.48438299 282.33874333 822.79431606 246.9284668 811.78222656 C238.94839882 809.16840777 231.2939447 805.99180688 223.75 802.3125 C223.12818848 802.01118164 222.50637695 801.70986328 221.86572266 801.39941406 C203.30227337 792.27459764 186.39019892 779.583811 171.2265625 765.578125 C169.89240386 764.35760133 168.55118705 763.14375055 167.17260742 761.97363281 C160.68817121 756.45166962 154.69608294 750.44467763 148.67797852 744.42578125 C146.82522532 742.57521033 144.96461294 740.73279924 143.10351562 738.890625 C136.90971644 732.72551852 131.05698438 726.50871678 125.62084961 719.65771484 C123.20878894 716.63406161 120.64137671 713.82502273 118 711 C115.26229689 708.06617489 112.57907819 705.1310269 110.046875 702.01953125 C108.0381127 699.2929431 108.0381127 699.2929431 105.75 698.3125 C100.22996393 697.7995611 100.22996393 697.7995611 95.25 699.75 C92.98272786 703.62325657 92.65633624 706.95272475 93.75 711.3125 C95.21072472 713.33368405 96.816057 714.80756775 98.6953125 716.4453125 C100.96317319 718.50622012 102.74755464 720.70467887 104.625 723.125 C107.98731868 727.40725943 111.51433141 731.47889058 115.18359375 735.5 C116.65239379 737.10964388 118.11405653 738.72602368 119.55395508 740.36157227 C125.70376147 747.30819507 132.1757456 753.8917631 138.74487305 760.43774414 C140.5804506 762.26789755 142.41053826 764.10342167 144.24023438 765.93945312 C145.41634567 767.1149046 146.5927666 768.29004636 147.76953125 769.46484375 C148.58210136 770.28045021 148.58210136 770.28045021 149.41108704 771.11253357 C151.56311375 773.25129069 153.67403679 775.25680302 156.1237793 777.05297852 C156.66043213 777.46862061 157.19708496 777.8842627 157.75 778.3125 C157.75 778.9725 157.75 779.6325 157.75 780.3125 C157.1415625 780.3640625 156.533125 780.415625 155.90625 780.46875 C138.27149958 782.75089417 124.0534364 794.34606321 111.375 805.98828125 C103.13281453 813.28604963 94.20152339 819.67524124 84.75 825.3125 C83.66460938 825.98152344 82.57921875 826.65054688 81.4609375 827.33984375 C77.56237422 829.55279889 73.55243496 830.80316881 69.25 832 C68.52941406 832.21205078 67.80882812 832.42410156 67.06640625 832.64257812 C47.52657694 838.24305361 26.21307054 835.96740961 8.25708008 826.51318359 C-1.00928334 821.37290793 -8.74428206 814.94795146 -16.49609375 807.76953125 C-28.47638797 797.08072974 -39.70605522 790.80650398 -55.93359375 790.97265625 C-64.51316878 791.85183532 -71.45654982 797.19316825 -77.25 803.3125 C-79.07616109 805.69792293 -80.83472893 808.09724597 -82.51171875 810.58984375 C-84.25 812.3125 -84.25 812.3125 -86.6418457 812.6652832 C-89.25 812.3125 -89.25 812.3125 -91.07617188 810.66894531 C-91.88924805 809.54117676 -91.88924805 809.54117676 -92.71875 808.390625 C-93.61400391 807.15022461 -93.61400391 807.15022461 -94.52734375 805.88476562 C-97.10809188 802.03119954 -99.48590486 798.10961509 -101.75 794.0625 C-102.25281494 793.17046875 -102.75562988 792.2784375 -103.27368164 791.359375 C-124.51408303 753.31725078 -141.69088096 713.73852013 -155.25 672.3125 C-155.70753057 670.93723267 -156.16590581 669.56224615 -156.625 668.1875 C-156.97800171 667.12245239 -156.97800171 667.12245239 -157.33813477 666.03588867 C-157.99265582 664.08108751 -158.65827721 662.12998979 -159.33105469 660.18139648 C-162.67558938 650.3875512 -165.51012456 640.51163887 -168.125 630.5 C-168.34065613 629.67526184 -168.55631226 628.85052368 -168.77850342 628.00079346 C-179.26414677 587.70644567 -185.78847328 546.57839972 -190.6875 505.25 C-190.83920654 504.00806885 -190.99091309 502.7661377 -191.1472168 501.48657227 C-193.70097373 478.46032352 -193.43849867 455.1451288 -193.43530273 432.00415039 C-193.435221 428.9923712 -193.44226384 425.98074261 -193.45581055 422.96899414 C-193.52508984 407.31341791 -193.43323367 391.83144315 -191.74365234 376.24560547 C-191.21361483 371.3015489 -190.99556788 366.3693414 -190.80859375 361.40234375 C-190.33907909 350.13706794 -188.83767565 339.03804596 -187.3125 327.875 C-187.04420699 325.8601211 -186.77662656 323.84514719 -186.50976562 321.83007812 C-185.77653484 316.32137432 -185.02080691 310.81606408 -184.25 305.3125 C-184.15225281 304.61002136 -184.05450562 303.90754272 -183.95379639 303.18377686 C-183.09219826 297.05195685 -182.01007125 291.25730497 -180.25 285.3125 C-179.74760506 282.00917121 -179.33433924 278.70929768 -178.95117188 275.390625 C-178.34590179 270.40840179 -178.34590179 270.40840179 -177.25 269.3125 C-176.80192703 266.74158324 -176.39799338 264.17408417 -176.01171875 261.59375 C-174.30568361 250.84267017 -171.74210925 240.35612783 -169.0625 229.8125 C-168.8204483 228.85127228 -168.57839661 227.89004456 -168.32901001 226.89968872 C-164.68920194 212.46308604 -160.74975324 198.18200911 -156.12890625 184.02441406 C-155.23974465 181.28085653 -154.38105232 178.52942082 -153.53125 175.7734375 C-153.00004626 174.05727735 -152.46879892 172.34113069 -151.9375 170.625 C-151.70699951 169.87597412 -151.47649902 169.12694824 -151.23901367 168.35522461 C-149.83108301 163.87187289 -148.10633628 159.63457588 -146.25 155.3125 C-144.74760717 151.15934634 -143.34751724 146.97043342 -141.94335938 142.78320312 C-140.31616994 138.03209989 -138.47660463 133.60107979 -136.15893555 129.14770508 C-134.79637389 126.39659685 -133.86183247 123.52920161 -132.875 120.625 C-128.13237101 107.40208704 -121.51185296 94.86769113 -115.25 82.3125 C-114.81220215 81.43287598 -114.3744043 80.55325195 -113.92333984 79.64697266 C-96.49346292 44.91177027 -73.78427368 17.75914516 -35.99975586 5.08129883 C-24.17834796 1.27552998 -12.3992257 -0.06283998 0 0 Z " fill="#BFBFBF" transform="translate(501.25,264.6875)"/>
<path d="M0 0 C0.92713806 -0.00100708 1.85427612 -0.00201416 2.80950928 -0.00305176 C23.34189709 0.01198024 44.01279323 0.713817 63.82958984 6.60058594 C66.54922526 7.39155797 69.28311807 8.12076966 72.01953125 8.8515625 C102.10477841 16.95396606 102.10477841 16.95396606 115.53515625 24.85546875 C118.13412438 26.35026399 118.13412438 26.35026399 121.328125 27.60546875 C125.72028941 29.44615852 129.70415534 31.87815813 133.75 34.375 C134.5430957 34.86363525 135.33619141 35.35227051 136.15332031 35.85571289 C142.75954022 39.97487741 149.0022746 44.35111334 155.0625 49.25 C155.57635254 49.66233887 156.09020508 50.07467773 156.61962891 50.49951172 C171.3871115 62.44268542 185.68466511 76.00633704 197.0625 91.25 C197.47338867 91.78979492 197.88427734 92.32958984 198.30761719 92.88574219 C211.56880868 110.31942801 223.39162579 128.38634502 230.859375 149.08984375 C231.82161567 151.61728759 232.87095633 154.00654329 234.01171875 156.453125 C236.28517512 161.52309168 237.75366538 166.68734577 239.125 172.0625 C239.51014771 173.55668457 239.51014771 173.55668457 239.90307617 175.08105469 C246.96627436 203.36973538 247.46500469 232.07584742 244.3125 260.9375 C244.23399811 261.68337372 244.15549622 262.42924744 244.07461548 263.19772339 C243.0703367 272.56200027 241.45061835 281.49166107 238.95605469 290.57739258 C238.00390174 294.49084524 237.49222383 298.24964678 237.0625 302.25 C236.4025 302.25 235.7425 302.25 235.0625 302.25 C234.98 303.466875 234.8975 304.68375 234.8125 305.9375 C233.83749093 314.75436772 230.70349692 323.20946514 227.0625 331.25 C226.42952323 332.78840876 225.80532277 334.33044306 225.1875 335.875 C224.68283203 337.13570313 224.68283203 337.13570313 224.16796875 338.421875 C223.36047764 340.48768265 222.57432777 342.56186842 221.80078125 344.640625 C221.37152344 345.79046875 220.94226563 346.9403125 220.5 348.125 C219.91025391 349.72988281 219.91025391 349.72988281 219.30859375 351.3671875 C218.0625 354.25 218.0625 354.25 216.56738281 355.98608398 C214.52966957 359.05157958 214.26437845 361.7182167 213.73828125 365.35546875 C213.51657181 366.81247606 213.29446747 368.26942332 213.07202148 369.72631836 C212.95897675 370.49362274 212.84593201 371.26092712 212.72946167 372.05148315 C210.13142052 389.53989017 206.34149376 406.55478177 201.96582031 423.67138672 C200.70097313 428.68223268 199.53939909 433.7151044 198.375 438.75 C196.4373563 447.00993049 194.10840448 455.11770194 191.66650391 463.24023438 C191.46718262 463.90345703 191.26786133 464.56667969 191.0625 465.25 C190.8567334 465.93384766 190.6509668 466.61769531 190.43896484 467.32226562 C189.84047826 469.33591867 189.2617678 471.35432518 188.6875 473.375 C188.34976563 474.53257812 188.01203125 475.69015625 187.6640625 476.8828125 C186.76232839 481.93018138 187.13847697 485.61277472 189.671875 490.1015625 C199.12339498 502.34714496 209.85108404 512.59117381 222.21044922 521.85986328 C224.12952848 523.30031112 226.03594423 524.75644156 227.94140625 526.21484375 C236.4085814 532.66488485 245.07640843 538.76417331 253.87304688 544.75341797 C274.46977063 558.83213303 294.72475523 573.27412574 313.0625 590.25 C313.65417969 590.7759375 314.24585938 591.301875 314.85546875 591.84375 C332.01133927 607.81786222 343.30422111 631.33813726 344.28515625 654.703125 C344.7408049 671.99314403 341.77474691 686.68162963 332.0625 701.25 C332.35529545 706.22752268 334.85514827 710.85805275 337.0625 715.25 C337.36542969 715.86230469 337.66835938 716.47460938 337.98046875 717.10546875 C342.88858813 725.32327783 353.52382661 729.47219458 361.75 733.6875 C374.94894021 740.76404023 383.55449599 751.28901313 388.5625 765.4375 C394.75552929 790.09902734 388.32254374 812.70188823 375.9296875 833.94921875 C363.35768936 854.7889808 342.2507225 874.03669505 319 882.0625 C301.19324949 888.29861938 287.84990937 897.11924859 279.0625 914.25 C276.73160222 919.46141777 274.90917247 924.85291391 273.0625 930.25 C266.61254565 947.64313532 257.31166134 964.26352493 245.0625 978.25 C244.63243652 978.74564453 244.20237305 979.24128906 243.75927734 979.75195312 C231.50425396 993.78448772 218.2065917 1003.98714457 202.0625 1013.25 C200.96941528 1013.89509521 200.96941528 1013.89509521 199.85424805 1014.55322266 C194.53574848 1017.62675373 189.18580916 1019.90035938 183.375 1021.875 C182.50431885 1022.17422363 181.6336377 1022.47344727 180.73657227 1022.78173828 C141.37961796 1035.99859887 96.46574108 1030.74530053 59.28710938 1013.30078125 C53.50660403 1010.40747657 48.0247158 1007.03331911 42.50976562 1003.66845703 C28.63247701 995.20989472 15.79430439 988.12380391 -0.9375 991.25 C-10.82200269 994.29088023 -19.30785622 1000.43494977 -26.9375 1007.25 C-57.09711802 1034.14149158 -85.83795212 1048.28708898 -126.9375 1046.25 C-131.47540373 1045.68108216 -135.6036127 1044.68885058 -139.9375 1043.25 C-141.06929687 1042.89808594 -142.20109375 1042.54617188 -143.3671875 1042.18359375 C-160.24668414 1036.5878744 -173.64879049 1027.07197598 -186.93701172 1015.55444336 C-197.41210429 1005.92606408 -197.41210429 1005.92606408 -210.82421875 1002.7421875 C-216.49372687 1004.1045462 -220.40936828 1009.53635153 -223.9375 1013.875 C-228.92104974 1019.77552289 -233.62491424 1022.40165214 -241.375 1023.1875 C-251.65068105 1023.53081192 -256.79891444 1022.07195325 -264.48046875 1015.02734375 C-270.1609799 1008.60628901 -274.3435922 1001.05330911 -278.5625 993.625 C-279.07466064 992.72475098 -279.58682129 991.82450195 -280.11450195 990.89697266 C-288.70997474 975.67295449 -296.66342915 960.14186099 -304.0390625 944.29296875 C-305.53901364 941.07318221 -307.11590574 937.90429711 -308.75 934.75 C-310.84791774 930.61860568 -312.3900022 926.3827237 -313.9140625 922.01171875 C-314.91832278 919.30174922 -316.07283742 916.73460817 -317.3125 914.125 C-319.82264735 908.74169937 -321.79229446 903.23049241 -323.70654297 897.61474609 C-324.99198824 893.85831999 -326.36475021 890.170871 -327.87890625 886.5 C-330.21990598 880.71103338 -332.01979458 874.78996322 -333.8125 868.8125 C-334.5174698 866.4854469 -335.22320301 864.15862494 -335.9296875 861.83203125 C-336.27225586 860.7023291 -336.61482422 859.57262695 -336.96777344 858.40869141 C-338.01940469 854.98321176 -339.11944601 851.57605021 -340.23168945 848.16992188 C-344.7211985 834.36751564 -348.30525438 820.2973259 -351.9375 806.25 C-352.21795166 805.17637207 -352.49840332 804.10274414 -352.78735352 802.99658203 C-354.32127966 797.02473621 -355.58023027 791.09551539 -356.5 785 C-357.26137458 780.02278557 -358.15115179 775.16144681 -359.41577148 770.28637695 C-361.10640389 763.68761004 -362.38923182 757.04067026 -363.4375 750.3125 C-363.62868408 749.09784058 -363.62868408 749.09784058 -363.82373047 747.85864258 C-364.82607077 741.32826279 -365.61587657 734.78492097 -366.29101562 728.21313477 C-366.60256531 725.1842964 -366.94712939 722.19666272 -367.48828125 719.19921875 C-368.01796562 715.7217257 -368.03316836 712.39084598 -368 708.875 C-367.99097656 707.62976563 -367.98195313 706.38453125 -367.97265625 705.1015625 C-367.96105469 704.16054688 -367.94945312 703.21953125 -367.9375 702.25 C-368.48986328 702.27094727 -369.04222656 702.29189453 -369.61132812 702.31347656 C-390.88648797 703.00972247 -408.74161775 700.06508895 -425.41015625 685.64453125 C-438.59060969 673.15671369 -447.48472034 654.98943347 -448.2421875 636.76953125 C-448.59541877 618.56289525 -444.93150828 602.68350309 -436.9375 586.25 C-436.42123047 585.08984375 -436.42123047 585.08984375 -435.89453125 583.90625 C-424.82436155 559.92754307 -405.24906652 541.03299611 -384.375 525.5625 C-383.78654297 525.12325195 -383.19808594 524.68400391 -382.59179688 524.23144531 C-379.89486197 522.25674544 -377.33668515 520.44727521 -374.33007812 518.96142578 C-369.16169965 516.42756997 -369.16169965 516.42756997 -365.83081055 511.94458008 C-365.17845513 509.11981523 -364.82897263 506.38678684 -364.5625 503.5 C-364.42424805 502.4392627 -364.28599609 501.37852539 -364.14355469 500.28564453 C-363.85269716 498.05037485 -363.57953505 495.81273825 -363.32324219 493.57324219 C-362.72353731 488.40667082 -361.96633766 483.26720527 -361.1875 478.125 C-361.0330542 477.08891602 -360.8786084 476.05283203 -360.71948242 474.98535156 C-359.12014129 464.66849645 -357.02271499 454.46375736 -354.875 444.25 C-354.70319214 443.42771912 -354.53138428 442.60543823 -354.35437012 441.75823975 C-352.6980143 433.86357604 -351.00955168 426.06073564 -348.56518555 418.36572266 C-347.54894559 414.94031017 -346.95888534 411.45808673 -346.375 407.9375 C-345.63223564 403.48515823 -344.70598767 399.42163423 -342.9375 395.25 C-342.59048829 393.84138949 -342.27689923 392.4240532 -342 391 C-341.19791934 387.22405102 -340.11888892 383.66930705 -338.8515625 380.02734375 C-337.8743554 377.05813757 -337.00698794 374.068653 -336.14575195 371.06420898 C-334.36715803 364.8623293 -332.4924809 358.85775856 -329.97265625 352.91015625 C-328.59403291 349.36735437 -327.48816992 345.75853902 -326.375 342.125 C-324.72803873 336.75635006 -323.00226587 331.47205349 -320.9375 326.25 C-320.56882812 325.27933594 -320.20015625 324.30867188 -319.8203125 323.30859375 C-316.1801397 313.73335661 -312.52001344 304.19521384 -307.82421875 295.08203125 C-306.66108047 292.67889534 -305.8036949 290.17796046 -304.890625 287.671875 C-300.79449609 277.26367859 -295.50519099 267.35157345 -290.22631836 257.50854492 C-289.81389893 256.73744385 -289.40147949 255.96634277 -288.9765625 255.171875 C-288.60740723 254.48706055 -288.23825195 253.80224609 -287.85791016 253.09667969 C-286.81114428 251.10453956 -286.81114428 251.10453956 -285.9375 248.25 C-286.52015625 248.21261719 -287.1028125 248.17523438 -287.703125 248.13671875 C-297.19114137 247.37588725 -306.12807521 245.38531328 -314.73828125 241.2734375 C-317.04009003 240.20225828 -319.37095304 239.32255086 -321.75 238.4375 C-343.28809286 229.80898822 -360.2372565 214.18577735 -369.9375 193.25 C-373.60118187 184.2224963 -373.41319124 172.80497627 -369.875 163.75 C-359.45744964 142.42021114 -337.51906635 130.83311233 -316.02392578 123.21777344 C-302.55257313 118.68108791 -288.90285779 115.41863607 -274.9375 112.875 C-274.27555634 112.75348572 -273.61361267 112.63197144 -272.93161011 112.5067749 C-268.27858797 111.66469396 -263.61785621 110.91957434 -258.9375 110.25 C-258.23861664 110.14975525 -257.53973328 110.0495105 -256.81967163 109.94622803 C-242.31277996 107.95263441 -227.86820078 108.01580901 -213.25 108.125 C-210.87956112 108.13506005 -208.50911805 108.14418049 -206.13867188 108.15234375 C-200.40485469 108.17409406 -194.67119773 108.20732711 -188.9375 108.25 C-188.49857422 107.10821289 -188.49857422 107.10821289 -188.05078125 105.94335938 C-186.68701712 102.64400721 -184.87570694 99.73204954 -182.9375 96.75 C-182.54159668 96.13979004 -182.14569336 95.52958008 -181.73779297 94.90087891 C-174.44129258 83.81168565 -166.08668244 73.84581413 -156.9375 64.25 C-156.21046875 63.47011719 -155.4834375 62.69023437 -154.734375 61.88671875 C-148.92037977 55.82509039 -142.47923973 50.71898791 -135.79785156 45.66162109 C-133.96724859 44.27257301 -132.1516455 42.8654638 -130.3359375 41.45703125 C-117.50078389 31.63866513 -102.9938216 23.01796376 -87.875 17.1875 C-85.1056511 16.11385891 -82.39013472 15.00388252 -79.6796875 13.78515625 C-75.60125004 12.02765538 -71.41115028 10.88516968 -67.125 9.75 C-65.51535192 9.316116 -63.90597376 8.88122931 -62.296875 8.4453125 C-61.53568359 8.23938477 -60.77449219 8.03345703 -59.99023438 7.82128906 C-57.5957239 7.15488153 -55.23679775 6.39869237 -52.875 5.625 C-48.47566942 4.28541145 -44.0204879 3.4373718 -39.5 2.625 C-38.47990845 2.4401001 -38.47990845 2.4401001 -37.43920898 2.25146484 C-25.00384584 0.12069874 -12.58127895 0.00947406 0 0 Z M-194.1875 194.3125 C-195.08009521 194.61559082 -195.97269043 194.91868164 -196.89233398 195.23095703 C-210.61062389 200.07098352 -222.7348936 206.97943731 -233.9375 216.25 C-235.20980469 217.27673828 -235.20980469 217.27673828 -236.5078125 218.32421875 C-255.54779952 234.46941151 -266.52892914 258.13236115 -277.5625 280.0625 C-278.13009033 281.18736816 -278.69768066 282.31223633 -279.2824707 283.47119141 C-282.50147272 289.97855595 -285.31658843 296.53324553 -287.82983398 303.3449707 C-288.90512459 306.16509036 -290.10058985 308.8899301 -291.375 311.625 C-296.2075082 322.09040058 -300.2440276 332.76256983 -303.75756836 343.73266602 C-304.95654698 347.44707368 -306.25554281 351.06031764 -307.765625 354.66015625 C-310.89601389 362.3840988 -313.17804282 370.39713564 -315.5625 378.375 C-315.82151093 379.23861145 -316.08052185 380.1022229 -316.34738159 380.99200439 C-320.37200459 394.45961084 -324.07538624 407.9928236 -327.5 421.625 C-327.70546448 422.43487366 -327.91092896 423.24474731 -328.12261963 424.0791626 C-330.48157788 433.42233331 -332.5050776 442.73460749 -333.92127991 452.27084351 C-334.55639054 456.45093828 -335.52658658 460.26864416 -336.9375 464.25 C-337.16044581 465.88915841 -337.33047989 467.53671478 -337.4375 469.1875 C-337.79671068 473.43500876 -338.75501833 477.14609303 -339.9375 481.25 C-341.87517031 492.02283594 -343.1602436 502.93701657 -344.59692383 513.78540039 C-344.86403314 515.79138971 -345.13450058 517.79693494 -345.40844727 519.80200195 C-346.91093719 530.8055045 -348.17138395 541.71387594 -348.58929443 552.81573486 C-348.78463302 557.81874428 -349.16814173 562.75691817 -349.70770264 567.73419189 C-351.3575478 583.19363949 -351.20294754 598.64779731 -351.13311768 614.17260742 C-351.12234932 617.17705979 -351.12270033 620.18146673 -351.12310505 623.18593502 C-351.12245682 648.12249286 -351.0124116 673.03886966 -347.875 697.8125 C-347.76967957 698.66987762 -347.66435913 699.52725525 -347.55584717 700.41061401 C-341.41908611 750.22338666 -333.40880259 800.65927765 -317.2265625 848.3125 C-315.59942941 853.19143019 -314.18753114 858.13378919 -312.81274414 863.08911133 C-311.50691356 867.68174167 -309.86295429 872.05313922 -308.05541992 876.47094727 C-306.82637684 879.52624261 -305.67228187 882.60362509 -304.52734375 885.69140625 C-290.67797331 922.95100102 -274.82134706 962.49710839 -251.9375 995.25 C-251.49019531 995.90355469 -251.04289062 996.55710937 -250.58203125 997.23046875 C-248.79056316 999.63930431 -247.60092468 1001.09922166 -244.6171875 1001.77734375 C-240.61135588 1000.98902412 -239.01907619 998.23026991 -236.6875 995.125 C-231.19963523 988.22557069 -225.46681226 983.06783205 -216.9375 980.25 C-203.55979849 979.08523214 -191.86885292 981.98682151 -181.29052734 990.58935547 C-178.51523652 993.04894965 -175.85321888 995.62241295 -173.1796875 998.19140625 C-159.51509833 1011.26099079 -144.52648002 1019.63831014 -125.9375 1023.25 C-124.46410156 1023.54003906 -124.46410156 1023.54003906 -122.9609375 1023.8359375 C-113.63471522 1025.11317208 -103.98635703 1024.83114938 -94.9375 1022.25 C-93.82117188 1022.00507812 -92.70484375 1021.76015625 -91.5546875 1021.5078125 C-73.58130013 1017.33739613 -60.33482357 1006.57611182 -46.68725586 994.70849609 C-32.83291766 982.66544782 -18.80456835 971.44296586 0.0625 969.25 C-1.27146221 966.20415366 -2.60499916 964.44961002 -5.18359375 962.37109375 C-11.1535189 957.31464394 -16.60069097 951.73593892 -22.11938477 946.19848633 C-23.99579475 944.31671726 -25.87748969 942.44035262 -27.75976562 940.56445312 C-33.69612079 934.63183331 -39.55709405 928.69997671 -44.9375 922.25 C-45.41324463 921.69062744 -45.88898926 921.13125488 -46.37915039 920.55493164 C-47.73740026 918.95781143 -49.0882908 917.35476004 -50.4375 915.75 C-56.97352096 907.80537771 -56.97352096 907.80537771 -63.9375 900.25 C-64.46222964 896.00915225 -64.62509225 892.42463675 -62.4375 888.6875 C-58.91248148 886.66061435 -55.83958731 886.41329512 -51.9375 887.25 C-46.67646872 890.49616824 -43.26170518 895.42095659 -39.43359375 900.2109375 C-36.01680678 904.37096921 -32.37914065 908.29238278 -28.7109375 912.23046875 C-26.73524668 914.35511477 -24.84201967 916.53361643 -22.9609375 918.7421875 C-17.92219278 924.52119901 -12.47015102 929.90336479 -7.05078125 935.32202148 C-5.20021033 937.17477468 -3.35779924 939.03538706 -1.515625 940.89648438 C5.37246944 947.81674782 12.39427558 954.19410683 20.0625 960.25 C21.85656393 961.80974687 23.64877067 963.37163824 25.4375 964.9375 C60.21585032 993.83718723 102.16262008 1010.39142884 147.60302734 1007.06396484 C178.73401179 1003.96538115 208.47816513 987.92059392 228.625 964.0625 C239.49558765 950.24132428 248.42745065 935.53974926 254 918.8125 C258.38028 905.70033861 264.7106718 893.51562431 274.0625 883.25 C274.85333984 882.321875 274.85333984 882.321875 275.66015625 881.375 C282.61317549 873.72155377 291.87000847 869.01521437 301.36987305 865.31958008 C315.95571677 859.52571106 329.39788034 852.82462033 341.0625 842.25 C341.81144531 841.59773437 342.56039062 840.94546875 343.33203125 840.2734375 C356.6690832 827.90970098 368.03098442 808.69121818 369.33984375 790.3671875 C369.77821486 777.78623291 367.62803872 767.85575594 359.0625 758.25 C354.37043838 754.10293283 349.05599775 751.21159727 343.51538086 748.37548828 C332.88994759 742.93192964 324.77128026 736.25027558 318.0625 726.25 C317.65 725.64542969 317.2375 725.04085937 316.8125 724.41796875 C315.88176784 723.03802905 314.96962258 721.6455732 314.0625 720.25 C310.98873064 721.38820766 308.09266623 722.72455007 305.19140625 724.23828125 C275.65530665 739.45980071 243.1913248 740.09232147 211.8347168 730.06420898 C203.41622593 727.31928168 195.29470767 724.55176875 187.4375 720.43920898 C185.09582783 719.2666879 182.75042469 718.30437475 180.3046875 717.37109375 C174.34051281 715.04676834 168.6752491 712.17837569 162.9921875 709.24145508 C161.17502791 708.30608004 159.3495723 707.38840662 157.5234375 706.47070312 C156.36328125 705.87322266 155.203125 705.27574219 154.0078125 704.66015625 C152.43797607 703.85783569 152.43797607 703.85783569 150.83642578 703.03930664 C147.25055514 700.72625912 144.9674738 698.0599476 143.0625 694.25 C142.51932024 690.26668176 142.95333426 688.45327414 144.875 684.875 C147.42065931 682.15675361 149.57785313 681.71845633 153.25 681.5 C158.53688991 681.40488354 161.8932366 683.80310304 166.21899414 686.52099609 C171.36945287 689.65275094 176.79194921 692.25835136 182.1875 694.9375 C183.31542969 695.50533203 184.44335938 696.07316406 185.60546875 696.65820312 C191.33705419 699.51729224 196.99517496 702.19678514 203.0625 704.25 C203.95308105 704.56042236 204.84366211 704.87084473 205.76123047 705.19067383 C208.81462949 706.24773506 211.87500567 707.28211021 214.9375 708.3125 C215.96230469 708.66376953 216.98710938 709.01503906 218.04296875 709.37695312 C229.99773024 713.39478592 241.00816936 714.72367456 253.5625 714.75 C254.3171756 714.75267883 255.0718512 714.75535767 255.84939575 714.75811768 C267.86034921 714.74887149 278.16152557 713.53642573 289.0625 708.25 C290.10535156 707.78207031 291.14820313 707.31414063 292.22265625 706.83203125 C304.46846943 700.81861268 315.14841384 690.11597104 320.0625 677.25 C324.73309912 661.39012386 323.03670541 643.40787054 315.42700195 628.71606445 C311.2877796 621.27608546 305.94514 615.35889539 300.0625 609.25 C299.258125 608.21875 298.45375 607.1875 297.625 606.125 C293.58347362 601.59060454 288.82083298 598.00564187 284.0625 594.25 C282.99692989 593.3951117 281.93183428 592.53963166 280.8671875 591.68359375 C268.79956093 582.03374977 256.2939874 572.95631902 243.3828125 564.46875 C193.67147306 531.24987847 193.67147306 531.24987847 180.97265625 514.4921875 C178.96588808 512.1365946 178.07982599 511.57328493 175.0625 511.25 C174.82466797 512.19359375 174.82466797 512.19359375 174.58203125 513.15625 C170.83581163 526.89928771 170.83581163 526.89928771 165.125 530.45703125 C161.07435372 532.014382 157.10360286 531.59703429 153.0625 530.25 C150.45647827 525.86091078 150.47877312 521.18557691 151.0625 516.25 C151.78735352 514.13745117 151.78735352 514.13745117 152.75390625 511.91796875 C155.63632246 504.97855811 157.99920562 497.87410958 160.375 490.75 C160.61516846 490.03255615 160.85533691 489.3151123 161.1027832 488.57592773 C165.06315033 476.70797935 168.52104329 464.7796098 171.625 452.65625 C172.46567504 449.39298453 173.38432029 446.21033735 174.5 443.03125 C176.82964723 436.24244722 178.38689902 429.22238263 180.0625 422.25 C180.31571014 421.201539 180.31571014 421.201539 180.57403564 420.13189697 C181.78318331 415.11460907 182.96356244 410.09103679 184.125 405.0625 C184.29991974 404.30662598 184.47483948 403.55075195 184.65505981 402.77197266 C187.16353257 391.870643 189.25779868 381.02238477 190.58984375 369.90625 C191.0625 366.25 191.0625 366.25 192.0625 363.25 C193.02432348 358.98275497 193.12698096 355.51282927 192.0625 351.25 C188.75705666 346.04539633 183.80481811 342.09636282 179.0625 338.25 C178.26175049 337.59789551 178.26175049 337.59789551 177.44482422 336.93261719 C155.06014532 319.20344131 126.58493326 313.85590837 98.875 311.25 C70.67030745 308.56370998 44.43988459 299.48160037 21.0625 283.25 C20.43811035 282.82493164 19.8137207 282.39986328 19.17041016 281.96191406 C10.38206882 275.97425293 1.98910695 269.73193053 -6.0390625 262.7578125 C-9.34167273 259.90029799 -12.73370159 257.18011952 -16.15625 254.46875 C-19.01275229 252.18996727 -21.84412195 249.8825482 -24.67333984 247.57006836 C-28.08532052 244.78504816 -31.50958417 242.0153702 -34.9375 239.25 C-35.48245117 238.80897949 -36.02740234 238.36795898 -36.58886719 237.91357422 C-52.46404634 225.13735177 -69.52237214 214.32545418 -87.78613281 205.31445312 C-89.52209659 204.45553323 -91.24393089 203.56809034 -92.9609375 202.671875 C-112.24047827 193.06251399 -135.80871223 189.07432268 -157.125 189.0625 C-158.26775391 189.05025391 -159.41050781 189.03800781 -160.58789062 189.02539062 C-172.23454515 189.00563937 -183.15914753 190.5421047 -194.1875 194.3125 Z " fill="#040201" transform="translate(658.9375,75.75)"/>
<path d="M0 0 C1.23305878 -0.00537781 1.23305878 -0.00537781 2.49102783 -0.01086426 C19.61900262 -0.05099161 36.08367709 1.65665774 52.8125 5.375 C53.48401093 5.52256744 54.15552185 5.67013489 54.84738159 5.82217407 C71.32010338 9.4707645 88.85291271 13.5398981 103.375 22.3125 C104.98429723 22.97688876 106.6085144 23.60717681 108.25 24.1875 C112.61076631 25.87787246 116.22452491 28.00980208 120.04296875 30.69140625 C122.51793463 32.41185992 125.05774325 33.98350707 127.625 35.5625 C144.97641339 46.62402604 161.1286749 59.6403095 170.375 78.3125 C170.69936035 78.95445312 171.0237207 79.59640625 171.35791016 80.2578125 C179.36887533 96.38414641 182.10600934 112.22469767 181.875 130.125 C181.87012573 130.95500519 181.86525146 131.78501038 181.86022949 132.64016724 C181.77857681 144.51106839 181.13694953 155.87783522 177.91748047 167.37011719 C177.40788683 169.19474679 176.96894845 171.03869125 176.53515625 172.8828125 C172.08270501 191.22609086 165.56402925 209.11213305 158.125 226.4375 C157.3825 228.16939575 157.3825 228.16939575 156.625 229.9362793 C153.85746834 236.26226523 150.87601596 242.35923901 147.375 248.3125 C146.446875 247.508125 145.51875 246.70375 144.5625 245.875 C141.44005391 243.1932217 138.26137578 240.58999886 135.0625 238 C131.46503465 235.07217154 127.97670454 232.0765466 124.5625 228.9375 C118.44004079 223.37337826 111.92524382 218.35673209 105.375 213.3125 C104.02733882 212.26823553 102.67968268 211.22396455 101.33203125 210.1796875 C86.56309833 198.77322379 71.56641702 187.78697037 55.77587891 177.83154297 C53.13771644 176.16237001 50.51259919 174.47357877 47.88671875 172.78515625 C23.78893485 157.38957307 -1.6228333 144.65184169 -27.2265625 131.99926758 C-29.87241648 130.68603445 -32.50473771 129.35200421 -35.1328125 128.00390625 C-38.82078221 126.21767483 -42.52353983 124.75823725 -46.375 123.375 C-52.17429077 121.2473776 -57.90131467 119.00748378 -63.5859375 116.5859375 C-88.65107513 106.08306492 -114.92539101 98.9780667 -141.5 93.5 C-142.2423288 93.34675262 -142.98465759 93.19350525 -143.7494812 93.03561401 C-151.02192255 91.54285663 -158.24762594 90.17110445 -165.625 89.3125 C-164.1329284 85.01276678 -161.88864718 81.48111386 -159.25 77.8125 C-158.81445801 77.20519043 -158.37891602 76.59788086 -157.93017578 75.97216797 C-153.39271432 69.78501174 -148.29234803 64.19761852 -142.95898438 58.69335938 C-141.81790484 57.51218334 -140.69597576 56.31255788 -139.578125 55.109375 C-126.32556959 41.17720137 -107.86839647 27.67711627 -90.17578125 20.3671875 C-87.44249691 19.23703931 -84.75463767 18.0172371 -82.06005859 16.79833984 C-68.34654999 10.65180162 -54.33090699 6.34430969 -39.625 3.3125 C-38.94066895 3.16006836 -38.25633789 3.00763672 -37.55126953 2.85058594 C-25.11868492 0.14619943 -12.6653526 0.02216055 0 0 Z " fill="#FB8335" transform="translate(659.625,97.6875)"/>
<path d="M0 0 C4.46869886 1.50131365 8.94224091 2.9853263 13.4296875 4.4296875 C14.91145833 4.91145833 16.39322917 5.39322917 17.875 5.875 C18.60074219 6.10574219 19.32648438 6.33648437 20.07421875 6.57421875 C25.26292177 8.27349627 30.17037875 10.36955715 35.12011719 12.66992188 C38.01472895 14.00680259 40.92895135 15.28541637 43.85546875 16.55078125 C74.6301101 29.93370735 104.6323681 45.01766924 133 63 C133.84304688 63.52207031 134.68609375 64.04414063 135.5546875 64.58203125 C160.77385122 80.33442683 184.78066421 98.21933689 207.33935547 117.57763672 C209.05623967 119.04817 210.77948682 120.51096923 212.50390625 121.97265625 C218.35047937 126.93899664 224.13934575 131.96087593 229.8125 137.125 C230.32240479 137.58648437 230.83230957 138.04796875 231.35766602 138.5234375 C234.87897621 141.75795241 234.87897621 141.75795241 236 144 C173.37403967 138.69389857 134.14894619 122.24497171 86.45385742 81.75952148 C65.39738949 63.91556129 43.42906789 48.82795971 19 36 C18.34483398 35.64325195 17.68966797 35.28650391 17.01464844 34.91894531 C10.98157358 31.72755898 4.59271388 29.63565997 -1.875 27.5 C-3.06722168 27.10490234 -4.25944336 26.70980469 -5.48779297 26.30273438 C-20.66851839 21.36597966 -35.64703198 17.88914933 -51.6640625 17.796875 C-52.45920258 17.79117493 -53.25434265 17.78547485 -54.07357788 17.77960205 C-55.74581605 17.77022597 -57.41807208 17.76364783 -59.09033203 17.75976562 C-61.59832483 17.75010277 -64.10548131 17.71902606 -66.61328125 17.6875 C-80.52835038 17.59446887 -93.21250843 19.66912497 -106.4375 24.1875 C-107.3236499 24.48793213 -108.2097998 24.78836426 -109.12280273 25.09790039 C-126.25550822 31.09041602 -141.14600167 40.29239578 -155 52 C-155.89589844 52.73734375 -156.79179687 53.4746875 -157.71484375 54.234375 C-161.83640572 57.7720972 -165.55841005 61.03837965 -168.3203125 65.75 C-174.00780383 75.44218507 -174.00780383 75.44218507 -179.80859375 77.06640625 C-196.07806928 78.24984839 -212.18256123 70.73046134 -226 63 C-227.0209375 62.4328125 -228.041875 61.865625 -229.09375 61.28125 C-239.93760602 54.82367282 -249.17180206 45.83291686 -254 34 C-255.28334227 28.17378355 -254.73911519 23.52348527 -251.6875 18.375 C-234.97388283 -3.26797892 -200.98672181 -11.76304139 -175.0625 -15.1875 C-173.85722656 -15.32542969 -172.65195312 -15.46335938 -171.41015625 -15.60546875 C-168.24724415 -15.97139558 -165.13776895 -16.46408379 -162 -17 C-107.23391047 -25.32391711 -52.13235916 -17.82764614 0 0 Z " fill="#FA6A18" transform="translate(563,226)"/>
<path d="M0 0 C3.71002994 1.44762362 4.87065952 3.07613043 6.6875 6.5625 C13.07058214 17.57054488 22.09752567 23.15894679 33 29 C44.43668787 35.50893377 51.78625834 41.54460363 56.1484375 54.37890625 C60.06848321 71.04809144 54.72730256 86.92769022 46.15917969 101.17285156 C31.10639015 124.8997001 9.77743956 136.79653556 -15.625 147.125 C-36.77145356 156.04459415 -48.59815859 174.57637487 -57 195 C-57.62790142 196.90902286 -58.23356073 198.82556299 -58.8125 200.75 C-68.12080686 230.31286299 -91.01780606 257.41043241 -118.09326172 272.13867188 C-151.07423422 289.17188299 -187.41125667 291.48181606 -222.8215332 280.46972656 C-230.80160118 277.85590777 -238.4560553 274.67930688 -246 271 C-246.62181152 270.69868164 -247.24362305 270.39736328 -247.88427734 270.08691406 C-266.55204172 260.91082182 -283.47131314 248.12992327 -298.73828125 234.07421875 C-301.60076908 231.44903561 -304.54640133 228.92730832 -307.50390625 226.41015625 C-309 225 -309 225 -310 223 C-287.91988063 223.58384931 -266.27300428 236.43776589 -246.875 245.8125 C-226.10076066 255.84718701 -204.32187424 264.01773093 -181 265 C-180.26539551 265.03786621 -179.53079102 265.07573242 -178.77392578 265.11474609 C-156.62857079 266.14445948 -135.28091856 260.8413209 -118.1640625 246.04296875 C-101.94309389 230.72967167 -94.17480631 210.47019007 -90.4375 188.8125 C-90.22480469 187.63139648 -90.01210938 186.45029297 -89.79296875 185.23339844 C-88.88354088 180.16084267 -88.00415918 175.08504741 -87.19140625 169.99609375 C-85.66831591 160.5663881 -83.26732431 151.95575944 -80 143 C-79.67 142.01 -79.34 141.02 -79 140 C-83.95445839 137.70840297 -88.93863253 135.63471434 -94.0625 133.75 C-100.74239491 131.22056734 -107.01334861 128.08140754 -113.36328125 124.8359375 C-116.01993235 123.48098477 -118.68843832 122.22167881 -121.4375 121.0625 C-143.05930295 111.58777736 -163.08691253 98.18566731 -182.12548828 84.35253906 C-183.93464768 83.04715445 -185.75817326 81.76573544 -187.58984375 80.4921875 C-194.13849126 75.92393723 -200.46936077 71.1352841 -206.6875 66.125 C-207.37142822 65.577229 -208.05535645 65.02945801 -208.76000977 64.46508789 C-216.71253599 57.97631508 -216.71253599 57.97631508 -217.5 52.5625 C-217 49 -217 49 -215 46.0625 C-211.64811291 43.75807762 -209.99795697 43.46777489 -206.0625 43.53125 C-200.64748333 44.76193561 -196.15127939 49.06745119 -191.8125 52.375 C-165.52320692 72.20631718 -138.45957231 90.75719643 -108.7578125 105.13427734 C-107.13692429 105.93256479 -105.53606425 106.77118044 -103.9375 107.61328125 C-97.51182753 110.99199762 -91.01915197 113.55456868 -84.13696289 115.82080078 C-71.0880677 120.17507459 -71.0880677 120.17507459 -67 125 C-67 125.66 -67 126.32 -67 127 C-66.38253906 126.60167969 -65.76507812 126.20335937 -65.12890625 125.79296875 C-58.2086499 121.46385861 -51.86195869 118.92206871 -43.9609375 117.02734375 C-30.22824996 113.63663027 -15.51762412 108.02927617 -7 96 C-1.75873013 86.98388054 2.17625884 78.88036452 2.125 68.3125 C2.12886719 67.53455078 2.13273437 66.75660156 2.13671875 65.95507812 C2.1127986 51.61495075 -2.28652434 39.6796369 -12.3515625 29.25390625 C-20.0388064 22.71181225 -29.13582364 18.18193763 -39 16 C-39 15.67 -39 15.34 -39 15 C-37.99324219 14.81566406 -36.98648437 14.63132812 -35.94921875 14.44140625 C-23.15785224 11.87944224 -10.90886882 7.27257922 0 0 Z " fill="#FB9144" transform="translate(971,796)"/>
<path d="M0 0 C2.2455714 0.96358474 4.4616673 1.97796436 6.67578125 3.01171875 C10.0498502 4.44640689 13.42250234 5.21945505 17 6 C16.20352971 10.95021409 14.54679293 15.58170153 12.9375 20.3125 C12.65583984 21.14845703 12.37417969 21.98441406 12.08398438 22.84570312 C11.39204818 24.89805624 10.69639291 26.94915483 10 29 C11.39249204 29.36708396 12.78923333 29.71806563 14.1875 30.0625 C14.96480469 30.25972656 15.74210938 30.45695312 16.54296875 30.66015625 C21.3065613 31.31903153 24.95815851 29.70580021 29.203125 27.6796875 C30.18410156 27.22722656 31.16507813 26.77476562 32.17578125 26.30859375 C34.21545649 25.35743643 36.24944294 24.39397778 38.27734375 23.41796875 C46.05186701 19.8711601 50.98930906 19.4106216 59.06640625 21.97265625 C60.30197266 22.51212891 60.30197266 22.51212891 61.5625 23.0625 C62.40941406 23.42472656 63.25632812 23.78695312 64.12890625 24.16015625 C64.74636719 24.43730469 65.36382813 24.71445313 66 25 C59.7 45.3 59.7 45.3 55 50 C52.6134936 50.97696686 50.23843176 51.88260075 47.8125 52.75 C40.8755565 55.28035304 34.03214944 57.98347894 27.20703125 60.80078125 C21.9811269 62.75492575 19.19044407 63.48264949 14 61.1875 C13.175 60.83042969 12.35 60.47335938 11.5 60.10546875 C9.84682504 59.37445545 8.2007053 58.62725199 6.5625 57.86328125 C3.58954502 56.86172172 1.11642667 56.85504992 -2 57 C-3.00399524 59.62353518 -4.00334445 62.24867795 -5 64.875 C-5.42925781 65.99455078 -5.42925781 65.99455078 -5.8671875 67.13671875 C-7.43336648 70.95985011 -7.43336648 70.95985011 -8 75 C-6.5882217 75.53394179 -5.17029756 76.05165104 -3.75 76.5625 C-2.56664062 76.99755859 -2.56664062 76.99755859 -1.359375 77.44140625 C3.1057982 78.49855818 6.65634123 76.33151393 10.68359375 74.4609375 C11.77607422 73.96335937 12.86855469 73.46578125 13.99414062 72.953125 C16.28945809 71.90115874 18.58115293 70.8412519 20.86914062 69.7734375 C21.96291016 69.2784375 23.05667969 68.7834375 24.18359375 68.2734375 C25.17931396 67.81372559 26.17503418 67.35401367 27.20092773 66.88037109 C32.22066285 65.30155166 36.48484434 67.41791401 41.3125 69.0625 C42.38113281 69.42472656 43.44976563 69.78695312 44.55078125 70.16015625 C45.76314453 70.57587891 45.76314453 70.57587891 47 71 C46.23051217 76.07446027 44.45752928 80.73250351 42.625 85.5 C42.34011719 86.34175781 42.05523438 87.18351562 41.76171875 88.05078125 C39.79647653 93.06254354 37.95522776 95.48418341 33.01171875 97.7578125 C31.01557977 98.52571222 29.01111046 99.27221192 27 100 C24.88596658 100.89576572 22.775333 101.79959263 20.66796875 102.7109375 C18.50894718 103.60171349 16.34878044 104.48971876 14.1875 105.375 C13.09501953 105.83777344 12.00253906 106.30054688 10.87695312 106.77734375 C9.81798828 107.20917969 8.75902344 107.64101562 7.66796875 108.0859375 C6.72203857 108.4782959 5.7761084 108.8706543 4.80151367 109.27490234 C-0.20197348 110.56992255 -4.42786029 109.00890178 -9.0625 107.0625 C-9.87847656 106.72347656 -10.69445312 106.38445312 -11.53515625 106.03515625 C-12.75525391 105.52275391 -12.75525391 105.52275391 -14 105 C-15.66554602 104.33053852 -17.33190174 103.66307649 -19 103 C-17.26751883 95.36133302 -15.13135691 88.18463616 -12 81 C-13.99723547 80.65048379 -15.99810127 80.32173372 -18 80 C-19.18207031 79.73574219 -20.36414063 79.47148437 -21.58203125 79.19921875 C-27.11126379 78.52158553 -31.3235505 80.86336408 -36.1875 83.25 C-37.06341797 83.65863281 -37.93933594 84.06726563 -38.84179688 84.48828125 C-42.31092883 86.12421762 -45.64912103 87.78316996 -48.9140625 89.80078125 C-52.21960101 91.70115639 -54.35651897 90.89593796 -58 90 C-61.38188103 88.77382091 -64.69872834 87.42811551 -68 86 C-67.69104892 83.66124034 -67.35369623 81.33211671 -67 79 C-66.91041016 78.31631348 -66.82082031 77.63262695 -66.72851562 76.92822266 C-65.77709748 70.93786303 -64.130054 65.55955547 -60 61 C-51.23627376 55.30682796 -40.93856847 52.02207942 -31 49 C-30.12666016 48.72567139 -29.25332031 48.45134277 -28.35351562 48.16870117 C-22.96956219 46.69318014 -19.37648075 47.23087055 -14.25 49.3125 C-10.19712344 50.84367841 -6.29764217 52.30286339 -2 53 C1.25643639 46.83603112 3.72401366 40.58583281 6 34 C4.96875 33.855625 3.9375 33.71125 2.875 33.5625 C-1 33 -1 33 -3.87475586 32.32055664 C-7.64924285 31.93340709 -9.47040387 32.69433372 -12.87890625 34.30859375 C-13.96494141 34.80810547 -15.05097656 35.30761719 -16.16992188 35.82226562 C-17.28947266 36.35529297 -18.40902344 36.88832031 -19.5625 37.4375 C-21.7890346 38.48625783 -24.019382 39.52696847 -26.25390625 40.55859375 C-27.23689697 41.02579834 -28.2198877 41.49300293 -29.23266602 41.97436523 C-33.72460376 43.63917604 -37.12362205 43.18439712 -41.5625 41.625 C-42.67818359 41.24214844 -42.67818359 41.24214844 -43.81640625 40.8515625 C-45.95340284 40.01817206 -47.96727062 39.06015365 -50 38 C-49.33537266 35.97113758 -48.66621421 33.94369729 -47.98046875 31.921875 C-47.25239647 29.7521616 -46.55075797 27.57354077 -45.86328125 25.390625 C-45.45464844 24.14796875 -45.04601562 22.9053125 -44.625 21.625 C-44.24601563 20.44164062 -43.86703125 19.25828125 -43.4765625 18.0390625 C-41.0565352 13.05815974 -36.45399696 11.65770191 -31.5078125 9.625 C-30.47269531 9.19703125 -29.43757812 8.7690625 -28.37109375 8.328125 C-26.76427734 7.67070313 -26.76427734 7.67070313 -25.125 7 C-23.00249295 6.12526982 -20.88009433 5.25027648 -18.7578125 4.375 C-17.76056152 3.96644775 -16.76331055 3.55789551 -15.73583984 3.13696289 C-13.44720093 2.18584818 -11.18352499 1.19638351 -8.921875 0.18359375 C-5.28538524 -1.2894763 -3.74504112 -1.12351234 0 0 Z " fill="#FD5904" transform="translate(660,118)"/>
<path d="M0 0 C19.70441791 17.62931895 24.75871776 59.06388732 26.22314453 83.76367188 C27.02884576 103.49451203 25.14389941 122.57283017 22 142 C21.8664209 142.87946289 21.7328418 143.75892578 21.59521484 144.66503906 C18.95584317 161.61779047 12.60318294 177.84820357 7 194 C4 194 4 194 1.984375 192.09375 C1.24703125 191.2378125 0.5096875 190.381875 -0.25 189.5 C-1.05308594 188.57832031 -1.85617187 187.65664063 -2.68359375 186.70703125 C-3.44800781 185.81371094 -4.21242188 184.92039062 -5 184 C-9.16607832 179.19153319 -13.38673984 174.43867994 -17.6875 169.75 C-18.44450195 168.92181763 -18.44450195 168.92181763 -19.21679688 168.0769043 C-21.88958405 165.18152459 -24.61325914 162.37975563 -27.4765625 159.671875 C-28.03512939 159.13852539 -28.59369629 158.60517578 -29.16918945 158.05566406 C-30.2434511 157.0386985 -31.33019793 156.03472026 -32.43041992 155.04589844 C-33.89453125 153.65625 -33.89453125 153.65625 -36 151 C-35.64346632 147.57929803 -34.5786392 144.76620365 -33.1015625 141.68359375 C-32.71009033 140.85142334 -32.31861816 140.01925293 -31.9152832 139.16186523 C-31.27659302 137.81330444 -31.27659302 137.81330444 -30.625 136.4375 C-18.99101024 111.32632319 -8.58035411 85.3367249 -3.42285156 58.07788086 C-2.99710588 55.98577838 -2.49598883 53.9270469 -1.96484375 51.859375 C0.6769949 41.29202039 1.17959676 30.9049605 1.1875 20.0625 C1.18830566 18.99652588 1.18911133 17.93055176 1.18994141 16.83227539 C1.14967597 11.13382067 0.84777296 5.63599464 0 0 Z " fill="#FA6A19" transform="translate(857,209)"/>
<path d="M0 0 C0.11106861 7.8912704 -0.04643817 15.67800085 -0.57218933 23.55247498 C-1.86991984 43.03745629 -2.20005487 62.49121586 -2.18847656 82.01408005 C-2.187507 84.047811 -2.18846721 86.08153421 -2.18969727 88.11526489 C-2.18945973 91.98444731 -2.18068046 95.85349633 -2.16796875 99.72265625 C-2.16617867 101.44270874 -2.16617867 101.44270874 -2.16435242 103.19750977 C-2.12620263 109.85283279 -1.80804578 116.4255287 -1.21894836 123.05540466 C-0.89791791 127.37288286 -0.91210842 131.67378096 -1 136 C-18.14463257 136.73916979 -30.70643162 134.34021521 -43.8046875 122.34765625 C-53.61941922 111.94810891 -56.51067395 98.86252463 -56.1796875 85.08203125 C-55.01773002 54.3045033 -36.66351743 30.39386484 -15.13378906 9.95214844 C-4.25562781 0 -4.25562781 0 0 0 Z " fill="#BDBCBC" transform="translate(289,620)"/>
<path d="M0 0 C3.77168278 0.91434734 5.6536216 2.55038839 8.0625 5.4375 C27.27269788 28.44797615 55.68336107 45.00857561 80.265625 61.5546875 C89.28657632 67.632952 97.76237059 73.89733286 106 81 C107.7434776 82.40397171 109.49324957 83.80017213 111.25 85.1875 C128.49277974 98.95413534 144.10997277 116.21695202 147 139 C147.70795915 148.78079274 148.14890598 158.91342263 144 168 C143.60941406 168.886875 143.21882812 169.77375 142.81640625 170.6875 C136.61226022 183.34184885 126.50040209 191.07473296 114 197 C113.09024414 197.45729492 113.09024414 197.45729492 112.16210938 197.92382812 C101.46574893 203.10960287 90.5583817 203.57797927 78.875 203.625 C78.16073853 203.63217041 77.44647705 203.63934082 76.71057129 203.64672852 C65.93283606 203.70485618 56.31896361 202.05451406 46 199 C45.03449219 198.71688965 44.06898438 198.4337793 43.07421875 198.14208984 C40.72216679 197.42426168 38.39175043 196.66323336 36.0625 195.875 C35.28455078 195.62363281 34.50660156 195.37226562 33.70507812 195.11328125 C28.12402344 193.24804688 28.12402344 193.24804688 27 191 C29.66688629 191.14243597 32.33345767 191.28886578 35 191.4375 C35.74378906 191.47681641 36.48757813 191.51613281 37.25390625 191.55664062 C40.82023534 191.75821575 44.30735908 192.04114746 47.8515625 192.515625 C68.70503384 195.2523213 93.27828245 193.48878557 110.8125 180.75 C115.2733191 177.03265075 118.72564663 172.77509866 122 168 C122.4125 167.401875 122.825 166.80375 123.25 166.1875 C129.65670408 156.01214646 129.38575479 142.40544711 127 131 C120.84046756 109.54284942 103.6915966 91.78644988 86 79 C83.49451921 77.13230474 80.99824836 75.25235356 78.5 73.375 C77.11068877 72.33461982 75.72136561 71.29425555 74.33203125 70.25390625 C60.28635242 59.71725461 46.3046921 49.20333486 33.50097656 37.15991211 C31.16507347 34.96661201 28.81973296 32.8564152 26.3125 30.859375 C24.24417707 29.19633156 22.58864575 27.57670665 20.875 25.5625 C20.28847656 24.87671875 19.70195313 24.1909375 19.09765625 23.484375 C18.05931641 22.25460937 18.05931641 22.25460937 17 21 C16.08230979 19.9216379 15.16432077 18.84353004 14.24609375 17.765625 C6.61340405 8.78711139 6.61340405 8.78711139 3.79296875 5.16796875 C2.18187433 2.92250536 2.18187433 2.92250536 0 2 C0 1.34 0 0.68 0 0 Z " fill="#F89246" transform="translate(834,587)"/>
<path d="M0 0 C5.20356054 4.29859349 9.95516957 8.89892187 14.66796875 13.73046875 C16.90158096 16.01155729 16.90158096 16.01155729 19.30078125 17.67578125 C19.86152344 18.11277344 20.42226563 18.54976562 21 19 C21 19.66 21 20.32 21 21 C20.3915625 21.0515625 19.783125 21.103125 19.15625 21.15625 C1.52149958 23.43839417 -12.6965636 35.03356321 -25.375 46.67578125 C-33.61718547 53.97354963 -42.54847661 60.36274124 -52 66 C-53.08539062 66.66902344 -54.17078125 67.33804687 -55.2890625 68.02734375 C-59.18762578 70.24029889 -63.19756504 71.49066881 -67.5 72.6875 C-68.58087891 73.00557617 -68.58087891 73.00557617 -69.68359375 73.33007812 C-89.22342306 78.93055361 -110.53692946 76.65490961 -128.49291992 67.20068359 C-137.75928334 62.06040793 -145.49428206 55.63545146 -153.24609375 48.45703125 C-165.22638797 37.76822974 -176.45605522 31.49400398 -192.68359375 31.66015625 C-201.26316878 32.53933532 -208.20654982 37.88066825 -214 44 C-215.82616109 46.38542293 -217.58472893 48.78474597 -219.26171875 51.27734375 C-221 53 -221 53 -223.4765625 53.51953125 C-226.86475793 52.8219616 -227.69291546 51.52897172 -229.6875 48.75 C-230.26886719 47.96109375 -230.85023438 47.1721875 -231.44921875 46.359375 C-232.81182199 44.28629602 -233.95433414 42.24586363 -235 40 C-233.65808594 39.79697266 -233.65808594 39.79697266 -232.2890625 39.58984375 C-223.55646098 38.03510553 -217.79915093 35.63325238 -211 30 C-203.73104914 24.05821102 -197.38976057 19.17775469 -187.59765625 19.59765625 C-176.91143482 21.25281536 -167.99658483 26.44211315 -159.23242188 32.46582031 C-155.51979521 35.0172361 -151.78633017 37.53743892 -148.04833984 40.05151367 C-145.98605706 41.43964354 -143.92877658 42.83524457 -141.87744141 44.23950195 C-132.63597515 50.48135696 -123.32837773 56.0359572 -112.3125 58.3125 C-105.08510638 59.91489362 -105.08510638 59.91489362 -104 61 C-82.01753298 62.07659007 -60.38923441 57.04138711 -43.45678711 42.1953125 C-35.46796575 34.92411144 -28.31728819 26.84085252 -21.25 18.6875 C-14.82340151 11.33632013 -8.03385291 5.59318873 0 0 Z " fill="#F79248" transform="translate(638,1024)"/>
<path d="M0 0 C2.37109375 1.31640625 2.37109375 1.31640625 3.37109375 4.31640625 C2.47279012 7.06908586 1.51578733 9.70065474 0.43359375 12.37890625 C-1.73815995 17.20915266 -1.73815995 17.20915266 -2.62890625 22.31640625 C-1.21712795 22.85034804 0.20079619 23.36805729 1.62109375 23.87890625 C2.80445313 24.31396484 2.80445313 24.31396484 4.01171875 24.7578125 C8.47689195 25.81496443 12.02743498 23.64792018 16.0546875 21.77734375 C17.14716797 21.27976563 18.23964844 20.7821875 19.36523438 20.26953125 C21.66055184 19.21756499 23.95224668 18.15765815 26.24023438 17.08984375 C27.33400391 16.59484375 28.42777344 16.09984375 29.5546875 15.58984375 C30.55040771 15.13013184 31.54612793 14.67041992 32.57202148 14.19677734 C37.5917566 12.61795791 41.85593809 14.73432026 46.68359375 16.37890625 C47.75222656 16.74113281 48.82085938 17.10335937 49.921875 17.4765625 C50.73011719 17.75371094 51.53835938 18.03085938 52.37109375 18.31640625 C51.60160592 23.39086652 49.82862303 28.04890976 47.99609375 32.81640625 C47.56876953 34.07904297 47.56876953 34.07904297 47.1328125 35.3671875 C45.16757028 40.37894979 43.32632151 42.80058966 38.3828125 45.07421875 C36.38667352 45.84211847 34.38220421 46.58861817 32.37109375 47.31640625 C30.25706033 48.21217197 28.14642675 49.11599888 26.0390625 50.02734375 C23.88004093 50.91811974 21.71987419 51.80612501 19.55859375 52.69140625 C18.46611328 53.15417969 17.37363281 53.61695313 16.24804688 54.09375 C15.18908203 54.52558594 14.13011719 54.95742187 13.0390625 55.40234375 C12.09313232 55.79470215 11.14720215 56.18706055 10.17260742 56.59130859 C5.16912027 57.8863288 0.94323346 56.32530803 -3.69140625 54.37890625 C-4.50738281 54.03988281 -5.32335937 53.70085937 -6.1640625 53.3515625 C-6.97746094 53.00996094 -7.79085937 52.66835937 -8.62890625 52.31640625 C-10.29445227 51.64694477 -11.96080799 50.97948274 -13.62890625 50.31640625 C-11.89642508 42.67773927 -9.76026316 35.50104241 -6.62890625 28.31640625 C-8.62614172 27.96689004 -10.62700752 27.63813997 -12.62890625 27.31640625 C-13.81097656 27.05214844 -14.99304688 26.78789062 -16.2109375 26.515625 C-21.74017004 25.83799178 -25.95245675 28.17977033 -30.81640625 30.56640625 C-31.69232422 30.97503906 -32.56824219 31.38367188 -33.47070312 31.8046875 C-36.93983508 33.44062387 -40.27802728 35.09957621 -43.54296875 37.1171875 C-46.84850726 39.01756264 -48.98542522 38.21234421 -52.62890625 37.31640625 C-56.01078728 36.09022716 -59.32763459 34.74452176 -62.62890625 33.31640625 C-62.31995517 30.97764659 -61.98260248 28.64852296 -61.62890625 26.31640625 C-61.53931641 25.63271973 -61.44972656 24.9490332 -61.35742188 24.24462891 C-60.4062183 18.25562029 -58.77455692 12.86328128 -54.62890625 8.31640625 C-45.80437758 2.67380571 -35.537432 -0.48628111 -25.62890625 -3.68359375 C-24.54955811 -4.06008057 -23.47020996 -4.43656738 -22.3581543 -4.82446289 C-15.00990223 -7.13759457 -6.75899287 -2.74664806 0 0 Z " fill="#2C2929" transform="translate(654.62890625,170.68359375)"/>
<path d="M0 0 C10.57086969 -0.65386823 17.47042364 3.80825514 25.40625 10.375 C35.04179873 19.48887889 41.09870099 31.04959167 41.65625 44.3125 C41.4352947 51.197467 40.03386567 57.13800786 35.3828125 62.3828125 C29.03104808 68.19917915 23.71772417 70.86910857 15.03125 70.59765625 C7.43011961 69.82698609 2.99882737 67.23171478 -2.78125 62.3125 C-4.09752601 61.80726274 -5.43313745 61.35034354 -6.78125 60.9375 C-12.96306155 58.8257743 -16.08035297 53.89967635 -19.03125 48.3125 C-20.70013299 44.74621478 -21.8080456 41.13045573 -22.78125 37.3125 C-23.27625 35.8275 -23.27625 35.8275 -23.78125 34.3125 C-24.98734158 16.53747814 -24.98734158 16.53747814 -19.78125 10.3125 C-13.60208163 3.53848045 -8.88553208 0.99837439 0 0 Z " fill="#020202" transform="translate(846.78125,65.6875)"/>
<path d="M0 0 C5.41501667 1.23068561 9.91122061 5.53620119 14.25 8.84375 C40.53929308 28.67506718 67.60292769 47.22594643 97.3046875 61.60302734 C98.92557571 62.40131479 100.52643575 63.23993044 102.125 64.08203125 C108.55067247 67.46074762 115.04334803 70.02331868 121.92553711 72.28955078 C136.44246664 77.13369162 136.44246664 77.13369162 140.0625 83.46875 C140.58272372 87.03599837 140.30378949 88.93791312 138.8125 92.21875 C136.25733258 95.50396526 134.45813993 96.27400954 130.375 96.84375 C126.62748165 96.41950264 124.03114727 95.27448211 120.65625 93.66015625 C117.81591951 92.35548637 114.93585614 91.29062817 112 90.21875 C105.32010509 87.68931734 99.04915139 84.55015754 92.69921875 81.3046875 C90.04256765 79.94973477 87.37406168 78.69042881 84.625 77.53125 C63.00319705 68.05652736 42.97558747 54.65441731 23.93701172 40.82128906 C22.12785232 39.51590445 20.30432674 38.23448544 18.47265625 36.9609375 C11.92400874 32.39268723 5.59313923 27.6040341 -0.625 22.59375 C-1.30892822 22.045979 -1.99285645 21.49820801 -2.69750977 20.93383789 C-10.65003599 14.44506508 -10.65003599 14.44506508 -11.4375 9.03125 C-10.9375 5.46875 -10.9375 5.46875 -8.9375 2.53125 C-5.58561291 0.22682762 -3.93545697 -0.06347511 0 0 Z " fill="#060505" transform="translate(764.9375,839.53125)"/>
<path d="M0 0 C6.23208217 2.65566176 10.15515795 8.00157336 13 14 C17.12737431 24.68176098 15.41044794 35.65873231 11 46 C7.17037724 53.01342156 1.56418165 57.47860612 -6 60 C-12.43481564 60.77661568 -15.81090932 59.53639315 -21.0234375 55.703125 C-26.88709556 50.65064493 -29.69522358 43.88384001 -30.2890625 36.31640625 C-30.67003221 24.78895541 -29.58220041 14.85845626 -21.796875 5.8828125 C-15.39249232 -0.82786674 -9.01534107 -1.3394221 0 0 Z " fill="#040303" transform="translate(604,358)"/>
<path d="M0 0 C6.80475916 3.37416748 11.46500873 9.10546619 14.36499023 16.0402832 C15.41555193 19.28244341 15.44478587 22.50620873 15.375 25.875 C15.36629883 26.57681396 15.35759766 27.27862793 15.34863281 28.00170898 C15.1938816 33.48713197 14.38709609 38.07278884 12 43 C11.69835937 43.63292969 11.39671875 44.26585937 11.0859375 44.91796875 C7.85622695 51.07542505 3.61158287 55.67370232 -3 58 C-8.2938134 58.72880033 -13.25772675 58.99061899 -17.875 56 C-24.44627276 50.42150945 -27.53971022 42.90262136 -28.3359375 34.421875 C-28.47408365 21.43613675 -26.13609182 13.53948182 -17.21875 3.99609375 C-12.05088655 -0.65316369 -6.75652468 -1.07468926 0 0 Z " fill="#040403" transform="translate(477,352)"/>
<path d="M0 0 C4.45516292 2.5702863 6.08757698 4.7329446 7.86328125 9.50390625 C13.56264215 24.29491339 20.64081606 38.56755848 27.9375 52.625 C28.48075928 53.67308838 29.02401855 54.72117676 29.58374023 55.80102539 C32.70510465 61.76730389 32.70510465 61.76730389 36.34375 67.421875 C38.81923778 71.27522862 38.95938124 74.57338128 38 79 C35.38245127 82.17278634 33.43795789 82.87486918 29.5 84 C24.98216893 84 24.18828381 83.17409263 21 80 C18.90362141 76.80222454 17.14287174 73.45045839 15.375 70.0625 C14.85574951 69.08539062 14.33649902 68.10828125 13.80151367 67.1015625 C12.7225863 65.06771488 11.64832785 63.03138399 10.57861328 60.99267578 C9.10519621 58.19942703 7.60361115 55.42387757 6.08984375 52.65234375 C-0.21504807 41.01178355 -5.47297769 29.1507071 -10.23486328 16.79980469 C-10.86173465 15.01356597 -10.86173465 15.01356597 -12 14 C-12.50331422 9.47017205 -12.79545569 5.39204745 -10.5 1.375 C-6.96053276 -0.57170698 -3.88082092 -0.83160448 0 0 Z " fill="#060505" transform="translate(398,954)"/>
<path d="M0 0 C4.02972326 2.59375844 6.95842231 6.07700088 9.09375 10.34765625 C9.83569185 14.41147411 9.88420402 17.89169094 7.8828125 21.578125 C2.92277656 27.78399156 -2.97730197 30.77436951 -10.828125 31.6875 C-18.94964484 31.95050259 -26.88083437 30.77967819 -33.90625 26.53515625 C-38.29652666 21.73329115 -39.61205359 17.22203168 -39.37109375 10.8125 C-38.545274 6.43357345 -36.4002599 3.99804203 -32.90625 1.34765625 C-23.33359643 -4.65976321 -10.12989478 -4.71040107 0 0 Z " fill="#D9AC89" transform="translate(661.90625,404.65234375)"/>
<path d="M0 0 C3.88985618 4.28881578 5.37343258 6.95707214 5.27734375 12.83984375 C4.80853303 16.49128503 3.33426987 19.18598755 1 22 C-2 24.3125 -2 24.3125 -5 26 C-5.85851562 26.53753906 -5.85851562 26.53753906 -6.734375 27.0859375 C-12.75337982 29.51429462 -22.31077543 28.8884445 -28.5 27 C-33.51924541 24.72651247 -37.56532642 19.86934717 -40 15 C-40.55308557 10.46651174 -40.42758431 6.92643268 -38.5 2.75 C-28.35127781 -8.41359441 -11.78810514 -9.19984727 0 0 Z " fill="#D9AD8A" transform="translate(437,398)"/>
<path d="M0 0 C2.71175035 1.58185437 4.1875974 2.51516977 6 5 C7.75319737 13.49417329 5.15053794 22.62887868 3.41015625 30.98388672 C2.77963059 34.08322061 2.2422166 37.19882289 1.6875 40.3125 C-0.52091359 52.28008568 -3.28663688 64.13911071 -6 76 C-6.17112305 76.75748535 -6.34224609 77.5149707 -6.51855469 78.29541016 C-9.61767296 91.90621769 -13.9095125 105.21573043 -17.96191406 118.56542969 C-19.26928157 122.89093442 -20.54713792 127.22455553 -21.8125 131.5625 C-23.80967988 138.39567194 -25.88396335 145.20267557 -28 152 C-28.33 152 -28.66 152 -29 152 C-29.125 146.25 -29.125 146.25 -28 144 C-27.72177223 142.41737284 -27.48690127 140.82703084 -27.2734375 139.234375 C-27.13252686 138.21891602 -26.99161621 137.20345703 -26.84643555 136.15722656 C-26.61307495 134.47064941 -26.61307495 134.47064941 -26.375 132.75 C-22.44855036 105.47463447 -17.07650131 78.51643176 -10.84521484 51.68164062 C-7.36932775 36.54115036 -4.06987259 21.35722703 -1.54296875 6.02734375 C-1 3 -1 3 0 0 Z " fill="#F5934A" transform="translate(845,422)"/>
<path d="M0 0 C4.34040512 0.13343018 6.56697226 1.61412344 9.640625 4.58203125 C16.15284643 12.05282732 18.63417402 17.68894242 18.3125 27.5 C17.9825 27.83 17.6525 28.16 17.3125 28.5 C15.69427863 28.32784879 14.0763283 28.13598373 12.47265625 27.859375 C10.94705423 27.60556779 9.41058631 27.41341629 7.87109375 27.265625 C2.0083206 26.51375791 -1.82701429 24.9133457 -5.5390625 20.19921875 C-7.90666896 14.63453826 -6.88340324 8.28845471 -5.6875 2.5 C-3.6875 0.5 -3.6875 0.5 0 0 Z " fill="#F4F4F4" transform="translate(848.6875,86.5)"/>
<path d="M0 0 C14.35188605 0.75957057 28.67349263 1.86491632 43 3 C43 3.33 43 3.66 43 4 C34.585 4.495 34.585 4.495 26 5 C26 5.99 26 6.98 26 8 C19.98775945 8.37072797 15.27979327 7.09547091 9.625 5.125 C8.80644531 4.85558594 7.98789062 4.58617187 7.14453125 4.30859375 C1.1323208 2.26464161 1.1323208 2.26464161 0 0 Z " fill="#F49953" transform="translate(861,778)"/>
<path d="M0 0 C2 1 2 1 2.76171875 3.0625 C3.08188278 7.00944019 2.0068183 10.29123968 0.8125 14 C0.58344971 14.74241943 0.35439941 15.48483887 0.1184082 16.24975586 C-0.35074478 17.76681934 -0.82478091 19.28238139 -1.30371094 20.79638672 C-1.9564452 22.86215792 -2.59493276 24.93159878 -3.2265625 27.00390625 C-4.14248106 30.0053516 -5.06725481 33.00375148 -6 36 C-6.33 36 -6.66 36 -7 36 C-7.125 30.25 -7.125 30.25 -6 28 C-5.66340097 25.98351739 -5.36970138 23.95979523 -5.09765625 21.93359375 C-4.92943359 20.72638672 -4.76121094 19.51917969 -4.58789062 18.27539062 C-4.23717665 15.71348369 -3.89083276 13.15097476 -3.54882812 10.58789062 C-3.37931641 9.38197266 -3.20980469 8.17605469 -3.03515625 6.93359375 C-2.80904663 5.2638147 -2.80904663 5.2638147 -2.57836914 3.56030273 C-2.38750732 2.71540283 -2.19664551 1.87050293 -2 1 C-1.34 0.67 -0.68 0.34 0 0 Z " fill="#EE9147" transform="translate(823,538)"/>
<path d="M0 0 C4.86334424 1.17899254 6.96611747 4.07753893 10.01953125 7.7578125 C13.35048988 11.52895698 17.17690683 14.74040128 21 18 C20.67 18.66 20.34 19.32 20 20 C17.32888275 19.91274027 15.56469042 19.55129776 13.62060547 17.65332031 C12.16753713 15.84769579 10.79119374 14.00627757 9.4375 12.125 C6.53208994 8.16852688 4.03705529 4.868684 0 2 C0 1.34 0 0.68 0 0 Z " fill="#E0904D" transform="translate(834,587)"/>
<path d="M0 0 C0.66 0.33 1.32 0.66 2 1 C-2.21780091 6.04947996 -6.69033508 10.82231358 -11.3125 15.5 C-11.84004883 16.04043945 -12.36759766 16.58087891 -12.91113281 17.13769531 C-14.23515758 18.46513471 -15.61366097 19.73777933 -17 21 C-17.66 21 -18.32 21 -19 21 C-19 21.66 -19 22.32 -19 23 C-19.66 22.67 -20.32 22.34 -21 22 C-14.52748547 14.16485083 -7.22226536 7.13211225 0 0 Z " fill="#B5B4B4" transform="translate(276,628)"/>
<path d="M0 0 C1.42732122 2.28918611 2.07591632 3.48450184 1.67626953 6.19824219 C1.41442871 6.97329102 1.15258789 7.74833984 0.8828125 8.546875 C0.60566406 9.39121094 0.32851563 10.23554687 0.04296875 11.10546875 C-0.41142578 12.41451172 -0.41142578 12.41451172 -0.875 13.75 C-1.31779297 15.08224609 -1.31779297 15.08224609 -1.76953125 16.44140625 C-2.49986734 18.63241453 -3.24366758 20.81785733 -4 23 C-4.33 23 -4.66 23 -5 23 C-5.125 17.25 -5.125 17.25 -4 15 C-3.47880089 11.95602203 -3.03959364 8.90408036 -2.59765625 5.84765625 C-2 3 -2 3 0 0 Z " fill="#D0894F" transform="translate(821,551)"/>
<path d="M0 0 C2.7552086 2.7552086 3.7340486 4.22928805 5.1875 7.6875 C5.53167969 8.49574219 5.87585938 9.30398437 6.23046875 10.13671875 C6.48441406 10.75160156 6.73835937 11.36648437 7 12 C6.01 12.33 5.02 12.66 4 13 C3.67 15.31 3.34 17.62 3 20 C2.67 20 2.34 20 2 20 C1.34 13.4 0.68 6.8 0 0 Z " fill="#E65F12" transform="translate(857,209)"/>
<path d="M0 0 C5.61 0.33 11.22 0.66 17 1 C17 1.33 17 1.66 17 2 C14.69 2 12.38 2 10 2 C10.33 2.99 10.66 3.98 11 5 C9.35153231 4.55123384 7.70626545 4.09069512 6.0625 3.625 C5.14597656 3.36976563 4.22945312 3.11453125 3.28515625 2.8515625 C1 2 1 2 0 0 Z " fill="#D59260" transform="translate(861,778)"/>
<path d="M0 0 C6.75 -0.125 6.75 -0.125 9 1 C8.67 2.32 8.34 3.64 8 5 C4.5625 4.1875 4.5625 4.1875 1 3 C0.67 2.01 0.34 1.02 0 0 Z " fill="#F19245" transform="translate(871,780)"/>
<path d="M0 0 C2.01822917 0.06510417 4.03645833 0.13020833 6.0546875 0.1953125 C1.4296875 4.1953125 1.4296875 4.1953125 -1.9453125 4.1953125 C-2.2753125 7.4953125 -2.6053125 10.7953125 -2.9453125 14.1953125 C-3.2753125 14.1953125 -3.6053125 14.1953125 -3.9453125 14.1953125 C-3.99920337 12.23727743 -4.03805467 10.27882341 -4.0703125 8.3203125 C-4.09351563 7.22976562 -4.11671875 6.13921875 -4.140625 5.015625 C-3.91574599 1.76837207 -3.42743504 0.34411998 0 0 Z " fill="#CACACA" transform="translate(846.9453125,86.8046875)"/>
<path d="M0 0 C1.98 1.65 3.96 3.3 6 5 C2.87819599 5.96661363 0.47916205 5.98988909 -2.75 5.5625 C-3.94882812 5.40974609 -3.94882812 5.40974609 -5.171875 5.25390625 C-5.77515625 5.17011719 -6.3784375 5.08632813 -7 5 C-4.38058783 3.25372522 -2.96175123 2.61277612 0 2 C0 1.34 0 0.68 0 0 Z " fill="#D8550D" transform="translate(793,364)"/>
<path d="M0 0 C0.33 0 0.66 0 1 0 C1.09038099 5.15171623 0.84681133 9.91913204 0 15 C-0.99 14.34 -1.98 13.68 -3 13 C-3.40843923 10.28796348 -3.13336867 7.7562858 -3 5 C-2.01 5 -1.02 5 0 5 C0 3.35 0 1.7 0 0 Z " fill="#2E2E2D" transform="translate(310,628)"/>
<path d="M0 0 C-3 2 -3 2 -6 2 C-6 2.66 -6 3.32 -6 4 C-9.13498292 5.85776765 -11.37471432 6.20140476 -15 6 C-11.57875892 3.02500775 -4.44240633 -2.22120316 0 0 Z " fill="#A4A3A2" transform="translate(459,274)"/>
<path d="M0 0 C0.66 0.66 1.32 1.32 2 2 C1.690625 2.598125 1.38125 3.19625 1.0625 3.8125 C-0.10209704 6.08956772 -0.10209704 6.08956772 -1 9 C-0.34 9.33 0.32 9.66 1 10 C-0.98 10 -2.96 10 -5 10 C-3.66511872 6.40608886 -2.03977277 3.24509304 0 0 Z " fill="#DB782C" transform="translate(499,177)"/>
<path d="M0 0 C3.65316671 1.24976756 4.78065836 1.67098753 7 5 C5.35 5.33 3.7 5.66 2 6 C0 3 0 3 0 0 Z " fill="#EF8D3D" transform="translate(848,601)"/>
<path d="M0 0 C2.88575819 0.39803561 3.82189513 0.79009069 5.75 3.0625 C6.1625 3.701875 6.575 4.34125 7 5 C6.34 5.66 5.68 6.32 5 7 C0 1.125 0 1.125 0 0 Z " fill="#F89C4F" transform="translate(842,596)"/>
<path d="M0 0 C0 0.99 0 1.98 0 3 C-2.64 2.34 -5.28 1.68 -8 1 C-4.93251126 -0.86240388 -3.40254489 -1.2151946 0 0 Z " fill="#F1A161" transform="translate(944,812)"/>
<path d="M0 0 C1.98 0 3.96 0 6 0 C5.67 1.32 5.34 2.64 5 4 C1.125 2.25 1.125 2.25 0 0 Z " fill="#ED9857" transform="translate(661,1019)"/>
<path d="M0 0 C0.66 0.33 1.32 0.66 2 1 C1.01 3.97 0.02 6.94 -1 10 C-1.66 9.34 -2.32 8.68 -3 8 C-2.01 5.36 -1.02 2.72 0 0 Z " fill="#393634" transform="translate(701,199)"/>
</svg>
